<svg width="25" height="13" viewBox="0 0 25 13" fill="none" xmlns="http://www.w3.org/2000/svg">
<path fill-rule="evenodd" clip-rule="evenodd" d="M1.57709 0C1.57709 1.88583 2.05013 3.72289 2.9305 5.35254L0.829102 7.43335L2.26971 8.88821L4.08768 7.08804C4.33368 7.39172 4.59643 7.68372 4.87531 7.9626C5.74042 8.82772 6.73181 9.53754 7.80615 10.0741L7.1584 12.4092L9.13132 12.9565L9.72353 10.8216C10.7272 11.1105 11.7748 11.2608 12.8379 11.2608C13.9831 11.2608 15.1103 11.0864 16.184 10.7522L16.7883 12.9306L18.7612 12.3834L18.0894 9.96135C19.0793 9.43951 19.9947 8.76843 20.8005 7.96261C20.9012 7.86189 20.9999 7.75946 21.0963 7.65539L22.3414 8.88821L23.782 7.43335L22.3546 6.01997C23.485 4.23289 24.0987 2.14809 24.0987 3.66924e-06L21.354 3.01485e-06C21.354 2.25862 20.4568 4.42472 18.8597 6.0218C17.2626 7.61888 15.0965 8.51611 12.8379 8.51611C10.5793 8.51611 8.4132 7.61888 6.81611 6.0218C5.21903 4.42472 4.3218 2.25861 4.3218 2.39947e-07L1.57709 0Z" fill="white"/>
<path fill-rule="evenodd" clip-rule="evenodd" d="M1.57709 0C1.57709 1.88583 2.05013 3.72289 2.9305 5.35254L0.829102 7.43335L2.26971 8.88821L4.08768 7.08804C4.33368 7.39172 4.59643 7.68372 4.87531 7.9626C5.74042 8.82772 6.73181 9.53754 7.80615 10.0741L7.1584 12.4092L9.13132 12.9565L9.72353 10.8216C10.7272 11.1105 11.7748 11.2608 12.8379 11.2608C13.9831 11.2608 15.1103 11.0864 16.184 10.7522L16.7883 12.9306L18.7612 12.3834L18.0894 9.96135C19.0793 9.43951 19.9947 8.76843 20.8005 7.96261C20.9012 7.86189 20.9999 7.75946 21.0963 7.65539L22.3414 8.88821L23.782 7.43335L22.3546 6.01997C23.485 4.23289 24.0987 2.14809 24.0987 3.66924e-06L21.354 3.01485e-06C21.354 2.25862 20.4568 4.42472 18.8597 6.0218C17.2626 7.61888 15.0965 8.51611 12.8379 8.51611C10.5793 8.51611 8.4132 7.61888 6.81611 6.0218C5.21903 4.42472 4.3218 2.25861 4.3218 2.39947e-07L1.57709 0Z" fill="white"/>
<path fill-rule="evenodd" clip-rule="evenodd" d="M1.57709 0C1.57709 1.88583 2.05013 3.72289 2.9305 5.35254L0.829102 7.43335L2.26971 8.88821L4.08768 7.08804C4.33368 7.39172 4.59643 7.68372 4.87531 7.9626C5.74042 8.82772 6.73181 9.53754 7.80615 10.0741L7.1584 12.4092L9.13132 12.9565L9.72353 10.8216C10.7272 11.1105 11.7748 11.2608 12.8379 11.2608C13.9831 11.2608 15.1103 11.0864 16.184 10.7522L16.7883 12.9306L18.7612 12.3834L18.0894 9.96135C19.0793 9.43951 19.9947 8.76843 20.8005 7.96261C20.9012 7.86189 20.9999 7.75946 21.0963 7.65539L22.3414 8.88821L23.782 7.43335L22.3546 6.01997C23.485 4.23289 24.0987 2.14809 24.0987 3.66924e-06L21.354 3.01485e-06C21.354 2.25862 20.4568 4.42472 18.8597 6.0218C17.2626 7.61888 15.0965 8.51611 12.8379 8.51611C10.5793 8.51611 8.4132 7.61888 6.81611 6.0218C5.21903 4.42472 4.3218 2.25861 4.3218 2.39947e-07L1.57709 0Z" fill="white"/>
<path fill-rule="evenodd" clip-rule="evenodd" d="M1.57709 0C1.57709 1.88583 2.05013 3.72289 2.9305 5.35254L0.829102 7.43335L2.26971 8.88821L4.08768 7.08804C4.33368 7.39172 4.59643 7.68372 4.87531 7.9626C5.74042 8.82772 6.73181 9.53754 7.80615 10.0741L7.1584 12.4092L9.13132 12.9565L9.72353 10.8216C10.7272 11.1105 11.7748 11.2608 12.8379 11.2608C13.9831 11.2608 15.1103 11.0864 16.184 10.7522L16.7883 12.9306L18.7612 12.3834L18.0894 9.96135C19.0793 9.43951 19.9947 8.76843 20.8005 7.96261C20.9012 7.86189 20.9999 7.75946 21.0963 7.65539L22.3414 8.88821L23.782 7.43335L22.3546 6.01997C23.485 4.23289 24.0987 2.14809 24.0987 3.66924e-06L21.354 3.01485e-06C21.354 2.25862 20.4568 4.42472 18.8597 6.0218C17.2626 7.61888 15.0965 8.51611 12.8379 8.51611C10.5793 8.51611 8.4132 7.61888 6.81611 6.0218C5.21903 4.42472 4.3218 2.25861 4.3218 2.39947e-07L1.57709 0Z" fill="white"/>
</svg>
