<svg width="20" height="18" viewBox="0 0 20 18" fill="none" xmlns="http://www.w3.org/2000/svg">
<path d="M2.09863 2L9.85725 8L17.0986 2" stroke="white" stroke-width="2"/>
<path fill-rule="evenodd" clip-rule="evenodd" d="M3.09863 2H16.0986C16.6509 2 17.0986 2.44772 17.0986 3V10H19.0986V3C19.0986 1.34315 17.7555 0 16.0986 0H3.09863C1.44178 0 0.0986328 1.34315 0.0986328 3V13C0.0986328 14.6569 1.44178 16 3.09863 16H12.0986V14H3.09863C2.54635 14 2.09863 13.5523 2.09863 13V3C2.09863 2.44772 2.54635 2 3.09863 2Z" fill="white"/>
<path d="M16.0144 17.6881V15.3193H13.627V13.6842H16.0144V11.3154H17.606V13.6842H19.9996V15.3193H17.606V17.6881H16.0144Z" fill="white"/>
</svg>
