<svg width="22" height="22" viewBox="0 0 22 22" fill="none" xmlns="http://www.w3.org/2000/svg">
<circle cx="11" cy="11" r="10" stroke="black" stroke-width="2"/>
<path d="M10.0402 13.6509V11.0458C9.22784 10.8137 8.63099 10.4635 8.24966 9.99513C7.87249 9.52262 7.6839 8.95063 7.6839 8.27917C7.6839 7.59942 7.89735 7.02951 8.32427 6.56943C8.75533 6.10521 9.32732 5.83787 10.0402 5.76741V5.1519H10.9417V5.76741C11.6008 5.84616 12.1251 6.07205 12.5147 6.44508C12.9043 6.81397 13.153 7.30928 13.2608 7.931L11.6878 8.13617C11.5925 7.64708 11.3438 7.3155 10.9417 7.14142V9.57235C11.9365 9.84177 12.6142 10.192 12.9748 10.6231C13.3354 11.05 13.5157 11.5992 13.5157 12.2706C13.5157 13.0208 13.2877 13.6529 12.8318 14.1669C12.38 14.6808 11.75 14.9959 10.9417 15.1119V16.2745H10.0402V15.143C9.32317 15.056 8.74083 14.7886 8.29318 14.341C7.84554 13.8933 7.55955 13.2612 7.43521 12.4447L9.0579 12.2706C9.12422 12.6022 9.24857 12.8882 9.43094 13.1286C9.61331 13.369 9.81641 13.5431 10.0402 13.6509ZM10.0402 7.12276C9.79568 7.20566 9.60088 7.34658 9.45581 7.54554C9.31074 7.74449 9.2382 7.96416 9.2382 8.20456C9.2382 8.42424 9.30452 8.62941 9.43716 8.82007C9.56979 9.00659 9.77081 9.15787 10.0402 9.27393V7.12276ZM10.9417 13.7379C11.2526 13.6799 11.5054 13.5369 11.7002 13.3089C11.895 13.0768 11.9924 12.8053 11.9924 12.4945C11.9924 12.2168 11.9095 11.9784 11.7438 11.7795C11.5821 11.5764 11.3148 11.4209 10.9417 11.3132V13.7379Z" fill="black"/>
</svg>
