<svg width="24" height="24" viewBox="0 0 24 24" fill="none" xmlns="http://www.w3.org/2000/svg">
<rect x="1.7291" y="12.2646" width="14.8996" height="14.8996" rx="1.28968" transform="rotate(-45 1.7291 12.2646)" stroke="black" stroke-width="1.54762"/>
<path d="M11.4222 9.79628L8.044 7.54412C7.65614 7.28555 7.14309 7.31916 6.79228 7.62612L3.6121 10.4088C3.3882 10.6047 3.25977 10.8877 3.25977 11.1852V12.8691C3.25977 13.1427 3.36847 13.4051 3.56196 13.5986L6.05281 16.0895C6.2463 16.283 6.50873 16.3917 6.78237 16.3917H8.967C9.2732 16.3917 9.56358 16.2557 9.75961 16.0204L11.3063 14.1644C11.6947 13.6983 12.3995 13.6663 12.8285 14.0953L14.8227 16.0895C15.0161 16.283 15.2786 16.3917 15.5522 16.3917H17.7927C18.0664 16.3917 18.3288 16.283 18.5223 16.0895L21.0131 13.5986C21.2066 13.4051 21.3153 13.1427 21.3153 12.8691V11.2543C21.3153 10.9176 21.1511 10.6021 20.8752 10.409L16.7691 7.53474C16.4037 7.27894 15.9153 7.28694 15.5584 7.55458L12.6136 9.76321C12.2636 10.0257 11.7862 10.0389 11.4222 9.79628Z" stroke="black" stroke-width="1.54762"/>
</svg>
