<svg width="20" height="19" viewBox="0 0 20 19" fill="none" xmlns="http://www.w3.org/2000/svg">
<circle cx="9.59863" cy="9.5" r="8.5" stroke="white" stroke-width="2"/>
<path d="M10.7679 11.6501H9.18253C9.17839 11.4221 9.17632 11.2833 9.17632 11.2335C9.17632 10.7196 9.26129 10.2968 9.43122 9.96522C9.60116 9.63363 9.94104 9.2606 10.4509 8.84612C10.9607 8.43164 11.2653 8.16015 11.3648 8.03166C11.5181 7.82856 11.5948 7.60474 11.5948 7.3602C11.5948 7.02032 11.458 6.73019 11.1845 6.48979C10.9151 6.24524 10.5503 6.12297 10.0903 6.12297C9.64675 6.12297 9.27579 6.24939 8.97737 6.50222C8.67894 6.75505 8.47377 7.14052 8.36186 7.65863L6.75781 7.45967C6.80341 6.71775 7.11841 6.08774 7.70283 5.56963C8.2914 5.05153 9.06233 4.79248 10.0156 4.79248C11.0187 4.79248 11.8166 5.05568 12.4093 5.58207C13.002 6.10432 13.2983 6.71361 13.2983 7.40994C13.2983 7.7954 13.1885 8.16015 12.9688 8.50417C12.7533 8.84819 12.2891 9.31656 11.5762 9.90926C11.2073 10.216 10.9772 10.4626 10.8861 10.6491C10.799 10.8356 10.7596 11.1693 10.7679 11.6501ZM9.18253 14.0002V12.2532H10.9296V14.0002H9.18253Z" fill="white"/>
</svg>
